<svg xmlns="http://www.w3.org/2000/svg" width="160" height="50" viewBox="0 0 160 50" fill="none"><path d="M14.6167 1.35V4.14001H9.04125V22.2H5.60557V4.14001H0V1.35H14.6167Z" fill="white"></path><path d="M29.6991 13.53C29.6991 14.15 29.6589 14.71 29.5785 15.21H16.8906C16.9911 16.53 17.4834 17.59 18.3674 18.39C19.2514 19.19 20.3364 19.59 21.6222 19.59C23.4707 19.59 24.7766 18.82 25.5401 17.28H29.247C28.7447 18.8 27.8306 20.05 26.5045 21.03C25.1985 21.99 23.5711 22.47 21.6222 22.47C20.035 22.47 18.6085 22.12 17.3427 21.42C16.097 20.7 15.1125 19.7 14.3892 18.42C13.686 17.12 13.3344 15.62 13.3344 13.92C13.3344 12.22 13.676 10.73 14.3591 9.45002C15.0623 8.15002 16.0368 7.15001 17.2824 6.45001C18.5482 5.75001 19.9948 5.40001 21.6222 5.40001C23.1894 5.40001 24.5858 5.74001 25.8113 6.42001C27.0369 7.10001 27.9913 8.06002 28.6744 9.30002C29.3575 10.52 29.6991 11.93 29.6991 13.53ZM26.1127 12.45C26.0926 11.19 25.6406 10.18 24.7565 9.42002C23.8725 8.66002 22.7775 8.28002 21.4715 8.28002C20.2861 8.28002 19.2715 8.66002 18.4277 9.42002C17.5838 10.16 17.0815 11.17 16.9208 12.45H26.1127Z" fill="white"></path><path d="M52.2777 5.40001C53.5837 5.40001 54.749 5.67001 55.7737 6.21001C56.8184 6.75001 57.6321 7.55001 58.2148 8.61002C58.8175 9.67002 59.1189 10.95 59.1189 12.45V22.2H55.7134V12.96C55.7134 11.48 55.3417 10.35 54.5983 9.57002C53.8549 8.77002 52.8403 8.37002 51.5544 8.37002C50.2685 8.37002 49.2439 8.77002 48.4804 9.57002C47.737 10.35 47.3653 11.48 47.3653 12.96V22.2H43.9598V12.96C43.9598 11.48 43.5881 10.35 42.8447 9.57002C42.1013 8.77002 41.0867 8.37002 39.8008 8.37002C38.5149 8.37002 37.4902 8.77002 36.7268 9.57002C35.9834 10.35 35.6117 11.48 35.6117 12.96V22.2H32.176V5.67001H35.6117V7.56001C36.1742 6.88001 36.8875 6.35001 37.7514 5.97001C38.6154 5.59001 39.5396 5.40001 40.5241 5.40001C41.8501 5.40001 43.0355 5.68001 44.0803 6.24001C45.1251 6.80001 45.9287 7.61001 46.4913 8.67002C46.9936 7.67001 47.7772 6.88001 48.842 6.30001C49.9069 5.70001 51.0521 5.40001 52.2777 5.40001Z" fill="white"></path><path d="M65.7209 8.10001C66.3036 7.34001 67.0972 6.70001 68.1018 6.18001C69.1064 5.66001 70.2415 5.40001 71.5073 5.40001C72.9539 5.40001 74.2699 5.76001 75.4553 6.48001C76.6608 7.18001 77.6051 8.17002 78.2882 9.45002C78.9714 10.73 79.3129 12.2 79.3129 13.86C79.3129 15.52 78.9714 17.01 78.2882 18.33C77.6051 19.63 76.6608 20.65 75.4553 21.39C74.2699 22.11 72.9539 22.47 71.5073 22.47C70.2415 22.47 69.1164 22.22 68.1319 21.72C67.1474 21.2 66.3438 20.56 65.7209 19.8V30.0601H62.2852V5.67001H65.7209V8.10001ZM75.817 13.86C75.817 12.72 75.5759 11.74 75.0937 10.92C74.6316 10.08 74.0087 9.45002 73.2251 9.03002C72.4617 8.59002 71.6379 8.37002 70.7539 8.37002C69.8899 8.37002 69.0662 8.59002 68.2826 9.03002C67.5191 9.47002 66.8963 10.11 66.4141 10.95C65.952 11.79 65.7209 12.78 65.7209 13.92C65.7209 15.06 65.952 16.06 66.4141 16.92C66.8963 17.76 67.5191 18.4 68.2826 18.84C69.0662 19.28 69.8899 19.5 70.7539 19.5C71.6379 19.5 72.4617 19.28 73.2251 18.84C74.0087 18.38 74.6316 17.72 75.0937 16.86C75.5759 16 75.817 15 75.817 13.86Z" fill="white"></path><path d="M84.9406 0V22.2H81.5049V0H84.9406Z" fill="white"></path><path d="M103.465 13.53C103.465 14.15 103.425 14.71 103.345 15.21H90.6569C90.7573 16.53 91.2496 17.59 92.1336 18.39C93.0176 19.19 94.1026 19.59 95.3884 19.59C97.2369 19.59 98.5428 18.82 99.3063 17.28H103.013C102.511 18.8 101.597 20.05 100.271 21.03C98.9648 21.99 97.3373 22.47 95.3884 22.47C93.8012 22.47 92.3747 22.12 91.1089 21.42C89.8632 20.7 88.8787 19.7 88.1554 18.42C87.4522 17.12 87.1006 15.62 87.1006 13.92C87.1006 12.22 87.4422 10.73 88.1253 9.45002C88.8285 8.15002 89.803 7.15001 91.0486 6.45001C92.3144 5.75001 93.761 5.40001 95.3884 5.40001C96.9556 5.40001 98.352 5.74001 99.5776 6.42001C100.803 7.10001 101.757 8.06002 102.441 9.30002C103.124 10.52 103.465 11.93 103.465 13.53ZM99.8789 12.45C99.8588 11.19 99.4068 10.18 98.5227 9.42002C97.6387 8.66002 96.5437 8.28002 95.2378 8.28002C94.0523 8.28002 93.0377 8.66002 92.1939 9.42002C91.35 10.16 90.8477 11.17 90.687 12.45H99.8789Z" fill="white"></path><path d="M69.8788 39.95C68.2514 39.95 67.4376 39.04 67.4376 37.22C67.4376 36.38 67.6386 35.5 68.0404 34.58C68.4422 33.66 68.9747 32.81 69.6377 32.03C70.3007 31.23 71.0341 30.58 71.8377 30.08C72.6615 29.58 73.4953 29.33 74.3391 29.33C75.0825 29.33 75.625 29.61 75.9666 30.17C76.3081 30.73 76.4789 31.35 76.4789 32.03C76.4789 32.93 76.2981 33.85 75.9364 34.79C75.5748 35.71 75.0825 36.56 74.4597 37.34C73.8368 38.12 73.1336 38.75 72.3501 39.23C71.5665 39.71 70.7427 39.95 69.8788 39.95ZM69.8486 38.99C69.9692 38.99 70.0395 38.98 70.0596 38.96C70.8432 38.86 71.5665 38.58 72.2295 38.12C72.8925 37.66 73.4651 37.09 73.9473 36.41C74.4496 35.71 74.8314 34.96 75.0926 34.16C75.3538 33.36 75.4844 32.57 75.4844 31.79C75.4844 31.33 75.3538 30.97 75.0926 30.71C74.8314 30.45 74.4999 30.32 74.098 30.32C73.5154 30.32 72.8925 30.56 72.2295 31.04C71.5866 31.52 70.9738 32.13 70.3911 32.87C69.8286 33.61 69.3665 34.39 69.0048 35.21C68.6432 36.01 68.4623 36.73 68.4623 37.37C68.4623 38.45 68.9244 38.99 69.8486 38.99Z" fill="white"></path><path d="M75.575 50C74.9321 50 74.48 49.78 74.2188 49.34C73.9375 48.92 73.7969 48.35 73.7969 47.63C73.7969 45.99 74.5704 43.46 76.1175 40.04C76.0371 39.96 75.9969 39.86 75.9969 39.74C75.9969 39.54 76.1778 39.34 76.5394 39.14C77.6043 37 78.5888 35.11 79.4929 33.47C80.4171 31.81 81.2509 30.4 81.9943 29.24C84.4857 25.44 86.7259 22.8099 88.7149 21.3499C88.9761 21.1499 89.2273 20.9899 89.4684 20.8699C89.7095 20.7499 89.9506 20.6899 90.1917 20.6899C90.5132 20.6899 90.6739 20.8199 90.6739 21.0799C90.6739 21.2199 90.6136 21.3699 90.4931 21.5299C90.3926 21.6699 90.2118 21.8999 89.9506 22.2199C89.6492 22.5599 89.2976 22.9599 88.8958 23.4199C88.4939 23.8599 88.072 24.3199 87.63 24.7999C87.2081 25.28 86.8163 25.72 86.4546 26.12C86.093 26.5 85.8017 26.8 85.5806 27.02L82.808 29.87L81.8436 31.4C81.5824 31.8 81.2609 32.35 80.8792 33.05C80.5175 33.73 80.0856 34.54 79.5833 35.48C79.3824 35.86 79.1212 36.35 78.7997 36.95C78.4983 37.55 78.1467 38.26 77.7449 39.08C77.9056 39.1 78.0463 39.14 78.1668 39.2C78.3075 39.24 78.4381 39.29 78.5586 39.35C81.3112 38.51 83.913 37.03 86.3642 34.91C86.5049 34.81 86.6254 34.76 86.7259 34.76C87.0674 34.76 87.2382 34.91 87.2382 35.21C87.2382 35.29 87.2081 35.37 87.1478 35.45C87.1076 35.53 87.0574 35.61 86.9971 35.69C86.6957 36.01 86.2638 36.38 85.7012 36.8C85.1386 37.22 84.4354 37.67 83.5916 38.15C82.8683 38.55 82.1651 38.92 81.482 39.26C80.8189 39.58 80.176 39.85 79.5532 40.07C80.1157 40.75 80.397 41.62 80.397 42.68C80.397 44.14 79.965 45.66 79.1011 47.24C78.0965 49.08 76.9211 50 75.575 50ZM75.3942 49.1C75.9768 49.1 76.5294 48.86 77.0517 48.38C77.5942 47.9 78.0563 47.28 78.4381 46.52C78.7194 45.98 78.9504 45.33 79.1312 44.57C79.3321 43.83 79.4326 43.18 79.4326 42.62C79.4326 41.5 79.091 40.75 78.4079 40.37C78.1467 40.41 77.9056 40.44 77.6846 40.46C77.4636 40.5 77.2527 40.51 77.0517 40.49V40.52C75.364 44.26 74.5202 46.82 74.5202 48.2C74.5202 48.5 74.6006 48.72 74.7613 48.86C74.922 49.02 75.133 49.1 75.3942 49.1Z" fill="white"></path><path d="M104.088 41.734C102.001 41.734 100.156 41.316 98.5528 40.48C96.9495 39.644 95.6897 38.466 94.7735 36.946C93.8573 35.4006 93.3993 33.6146 93.3993 31.588C93.3993 29.4346 93.8319 27.4713 94.6972 25.698C95.5625 23.9246 96.8095 22.3033 98.4382 20.8339C103.07 16.6539 108.58 14.5639 114.968 14.5639C116.316 14.5639 117.602 14.8046 118.823 15.2859C120.07 15.7419 121.088 16.4259 121.877 17.3379C122.666 18.2246 123.061 19.3013 123.061 20.5679C123.061 21.6066 122.742 22.4933 122.106 23.2279C121.954 23.4306 121.699 23.6966 121.343 24.0259C121.012 24.3299 120.719 24.4819 120.465 24.4819C120.261 24.4819 120.058 24.4059 119.854 24.2539C119.65 24.0766 119.549 23.8993 119.549 23.7219C119.549 23.5953 119.638 23.4559 119.816 23.3039C119.994 23.1266 120.261 22.8733 120.617 22.5439C121.305 21.8599 121.648 21.0873 121.648 20.2259C121.648 19.1873 121.279 18.3259 120.541 17.6419C119.828 16.9579 118.912 16.4513 117.793 16.1219C116.673 15.7673 115.489 15.5899 114.242 15.5899C111.443 15.5899 108.707 16.1853 106.035 17.3759C103.388 18.5413 101.047 20.1373 99.0109 22.1639C97.662 23.5066 96.6186 24.976 95.8806 26.572C95.168 28.1426 94.8117 29.9033 94.8117 31.854C94.8117 33.4753 95.1044 34.8306 95.6897 35.92C96.3005 37.0093 97.0767 37.896 98.0183 38.58C98.9854 39.264 100.042 39.7706 101.187 40.1C102.332 40.404 103.426 40.556 104.47 40.556C105.691 40.556 106.989 40.3913 108.364 40.062C109.763 39.7326 111.125 39.2893 112.448 38.732C113.797 38.1493 115.006 37.516 116.075 36.832C116.533 36.528 116.902 36.262 117.182 36.034C117.487 35.806 117.703 35.6286 117.831 35.502L118.976 33.564C119.281 33.0573 119.65 32.424 120.083 31.664C120.516 30.904 121.012 30.0173 121.572 29.004C120.783 29.004 119.79 29.118 118.594 29.346C117.398 29.574 116.151 29.8653 114.853 30.22C114.064 30.4226 113.275 30.6633 112.486 30.942C111.723 31.1953 111.239 31.322 111.036 31.322C110.603 31.322 110.387 31.094 110.387 30.638C110.387 30.5113 110.425 30.41 110.501 30.334C110.578 30.2326 110.743 30.1186 110.998 29.992C111.583 29.6626 112.334 29.3586 113.25 29.08C114.166 28.776 115.184 28.5226 116.304 28.32C117.322 28.1173 118.327 27.978 119.32 27.902C120.312 27.826 121.279 27.8006 122.221 27.826L122.335 27.598C122.437 27.3446 122.615 27.218 122.87 27.218C123.251 27.218 123.493 27.4206 123.595 27.826C124.231 27.8513 124.957 27.94 125.771 28.092C126.178 28.168 126.382 28.396 126.382 28.776C126.382 29.156 126.191 29.346 125.809 29.346C125.631 29.346 125.275 29.2953 124.74 29.194C124.231 29.0926 123.671 29.042 123.061 29.042C122.501 30.1313 121.394 32.0693 119.739 34.856C119.409 35.4133 119.129 35.8946 118.9 36.3C118.671 36.7053 118.492 37.0473 118.365 37.326C117.907 38.2126 117.563 39.074 117.334 39.91C117.258 40.1886 117.105 40.328 116.876 40.328C116.367 40.328 116.113 40.1 116.113 39.644C116.113 39.34 116.291 38.7193 116.647 37.782C115.502 38.5166 114.191 39.188 112.715 39.796C111.265 40.3786 109.789 40.8473 108.287 41.202C106.786 41.5567 105.386 41.734 104.088 41.734Z" fill="white"></path><path d="M129.3 39.9C127.13 39.9 126.045 38.6866 126.045 36.26C126.045 35.14 126.313 33.9666 126.848 32.74C127.384 31.5133 128.094 30.38 128.978 29.34C129.862 28.2733 130.84 27.4066 131.912 26.74C133.01 26.0733 134.122 25.74 135.247 25.74C136.238 25.74 136.961 26.1133 137.417 26.86C137.872 27.6066 138.1 28.4333 138.1 29.34C138.1 30.54 137.859 31.7666 137.376 33.02C136.894 34.2466 136.238 35.38 135.407 36.42C134.577 37.46 133.639 38.3 132.595 38.94C131.55 39.58 130.452 39.9 129.3 39.9ZM129.259 38.62C129.42 38.62 129.514 38.6066 129.541 38.58C130.585 38.4466 131.55 38.0733 132.434 37.46C133.318 36.8466 134.081 36.0866 134.724 35.18C135.394 34.2466 135.903 33.2466 136.251 32.18C136.6 31.1133 136.774 30.06 136.774 29.02C136.774 28.4066 136.6 27.9266 136.251 27.58C135.903 27.2333 135.461 27.06 134.925 27.06C134.148 27.06 133.318 27.38 132.434 28.02C131.577 28.66 130.76 29.4733 129.983 30.46C129.233 31.4466 128.617 32.4866 128.134 33.58C127.652 34.6466 127.411 35.6066 127.411 36.46C127.411 37.9 128.027 38.62 129.259 38.62Z" fill="white"></path><path d="M151.602 43.66C151.387 43.66 151.119 43.5533 150.798 43.34C150.503 43.1533 150.276 42.9667 150.115 42.78C149.793 42.38 149.579 41.9 149.472 41.34C149.365 40.78 149.311 40.1666 149.311 39.5C149.311 38.94 149.325 38.34 149.351 37.7C149.405 37.0333 149.485 36.3266 149.593 35.58C148.896 36.38 148.106 37.1666 147.222 37.94C146.364 38.6866 145.48 39.3 144.57 39.78C143.686 40.26 142.842 40.5 142.038 40.5C140.029 40.5 139.024 39.4333 139.024 37.3C139.024 35.0866 139.801 32.9533 141.355 30.9C142.132 29.8866 143.016 28.9133 144.007 27.98C144.998 27.0466 146.043 26.2866 147.141 25.7C148.24 25.1133 149.325 24.8199 150.396 24.8199C151.2 24.8199 151.91 25.1266 152.526 25.74C152.579 25.6333 152.646 25.46 152.727 25.22C152.834 24.9799 152.981 24.6733 153.169 24.2999C153.812 22.9133 154.522 21.4733 155.299 19.9799C156.075 18.4599 156.772 17.2066 157.388 16.2199C158.085 15.1266 158.741 14.5799 159.357 14.5799C159.786 14.5799 160 14.9133 160 15.5799C160 16.7266 158.915 19.4066 156.745 23.6199C156.611 23.8599 156.37 24.2999 156.022 24.94C155.7 25.5533 155.312 26.2733 154.857 27.1C154.428 27.9 153.986 28.7 153.53 29.5C153.075 30.3 152.66 31.02 152.285 31.66C151.937 32.2733 151.682 32.7 151.521 32.94C151.227 34.14 150.999 35.2866 150.838 36.38C150.677 37.4466 150.597 38.5533 150.597 39.7C150.597 40.1266 150.61 40.5133 150.637 40.86C150.691 41.2333 150.798 41.5266 150.959 41.74C151.093 41.9 151.24 42.02 151.401 42.1C151.562 42.2067 151.749 42.3 151.963 42.38C152.285 42.46 152.446 42.6467 152.446 42.94C152.446 43.42 152.164 43.66 151.602 43.66ZM153.49 26.94C154.508 25.2066 155.406 23.5933 156.183 22.0999C156.959 20.5799 157.589 19.1533 158.071 17.8199C157 19.2066 156.102 20.6733 155.379 22.2199C154.656 23.7666 154.026 25.3399 153.49 26.94ZM141.757 39.3C142.534 39.3 143.351 39.0466 144.208 38.54C145.092 38.0066 145.922 37.38 146.699 36.66C147.396 36.02 148.039 35.3666 148.628 34.7C149.217 34.0066 149.767 33.3 150.276 32.58C150.49 31.6466 150.731 30.7266 150.999 29.82C151.294 28.9133 151.615 28.0066 151.963 27.1C151.535 26.4333 150.932 26.1 150.155 26.1C149.351 26.1 148.454 26.4066 147.463 27.02C146.498 27.6066 145.561 28.34 144.65 29.22C143.766 30.1 143.002 30.94 142.36 31.74C141.02 33.5266 140.35 35.42 140.35 37.42C140.35 38.6733 140.819 39.3 141.757 39.3Z" fill="white"></path></svg>